# 3ds Max Wavefront OBJ Exporter v0.97b - (c)2007 guruware
# File Created: 26.11.2013 17:29:27

#
# object Barrier_cylinder
#

v  31.2500 -0.2164 0.0332
v  29.3654 -0.2164 -10.6549
v  29.3654 62.2836 -10.6549
v  31.2500 62.2836 0.0332
v  23.9389 -0.2164 -20.0539
v  23.9389 62.2836 -20.0539
v  15.6250 -0.2164 -27.0301
v  15.6250 62.2836 -27.0301
v  5.4265 -0.2164 -30.7421
v  5.4265 62.2836 -30.7421
v  -5.4265 -0.2164 -30.7421
v  -5.4265 62.2836 -30.7421
v  -15.6250 -0.2164 -27.0301
v  -15.6250 62.2836 -27.0301
v  -23.9389 -0.2164 -20.0539
v  -23.9389 62.2836 -20.0539
v  -29.3654 -0.2164 -10.6549
v  -29.3654 62.2836 -10.6549
v  -31.2500 -0.2164 0.0332
v  -31.2500 62.2836 0.0332
v  -29.3654 -0.2164 10.7213
v  -29.3654 62.2836 10.7213
v  -23.9389 -0.2164 20.1203
v  -23.9389 62.2836 20.1203
v  -15.6250 -0.2164 27.0965
v  -15.6250 62.2836 27.0965
v  -5.4265 -0.2164 30.8084
v  -5.4265 62.2836 30.8084
v  5.4265 -0.2164 30.8084
v  5.4265 62.2836 30.8084
v  15.6250 -0.2164 27.0965
v  15.6250 62.2836 27.0965
v  23.9389 -0.2164 20.1203
v  23.9389 62.2836 20.1203
v  29.3654 -0.2164 10.7213
v  29.3654 62.2836 10.7213
v  -9.0000 66.8138 -2.9350
v  -9.0000 61.8143 -2.9492
v  -10.0000 61.8143 -3.9492
v  -10.0000 66.9057 -3.9308
v  -11.0000 66.8138 -2.9350
v  -11.0000 61.8143 -2.9492
v  -10.0000 66.7220 -1.9393
v  -10.0000 61.8143 -1.9492
v  -10.0000 68.9238 -3.2168
v  -9.0000 68.3690 -2.3848
v  -11.0000 68.3690 -2.3848
v  -10.0000 67.8142 -1.5529
v  -10.0000 70.3587 -1.6281
v  -9.0000 69.4747 -1.1606
v  -11.0000 69.4747 -1.1606
v  -10.0000 68.5907 -0.6931
v  -10.0000 70.8641 0.4521
v  -9.0000 69.8642 0.4424
v  -11.0000 69.8642 0.4424
v  -10.0000 68.8642 0.4326
v  -10.0000 70.3183 2.5221
v  -9.0000 69.4436 2.0375
v  -11.0000 69.4436 2.0375
v  -10.0000 68.5688 1.5529
v  -10.0000 68.8528 4.0826
v  -9.0000 68.3143 3.2400
v  -11.0000 68.3143 3.2400
v  -10.0000 67.7758 2.3973
v  -10.0000 66.8212 4.7572
v  -9.0000 66.7487 3.7598
v  -11.0000 66.7487 3.7598
v  -10.0000 66.6763 2.7624
v  -10.0000 61.7489 4.7686
v  -9.0000 61.7489 3.7686
v  -11.0000 61.7489 3.7686
v  -10.0000 61.7489 2.7686
v  11.0000 66.8138 -2.9350
v  11.0000 61.8143 -2.9492
v  10.0000 61.8143 -3.9492
v  10.0000 66.9057 -3.9308
v  9.0000 66.8138 -2.9350
v  9.0000 61.8143 -2.9492
v  10.0000 66.7220 -1.9393
v  10.0000 61.8143 -1.9492
v  10.0000 68.9238 -3.2168
v  11.0000 68.3690 -2.3848
v  9.0000 68.3690 -2.3848
v  10.0000 67.8142 -1.5529
v  10.0000 70.3587 -1.6281
v  11.0000 69.4747 -1.1606
v  9.0000 69.4747 -1.1606
v  10.0000 68.5907 -0.6931
v  10.0000 70.8641 0.4521
v  11.0000 69.8642 0.4424
v  9.0000 69.8642 0.4424
v  10.0000 68.8642 0.4326
v  10.0000 70.3183 2.5221
v  11.0000 69.4436 2.0375
v  9.0000 69.4436 2.0375
v  10.0000 68.5688 1.5529
v  10.0000 68.8528 4.0826
v  11.0000 68.3143 3.2400
v  9.0000 68.3143 3.2400
v  10.0000 67.7758 2.3973
v  10.0000 66.8212 4.7572
v  11.0000 66.7487 3.7598
v  9.0000 66.7487 3.7598
v  10.0000 66.6763 2.7624
v  10.0000 61.7489 4.7686
v  11.0000 61.7489 3.7686
v  9.0000 61.7489 3.7686
v  10.0000 61.7489 2.7686
# 108 vertices

vn 1.0000 0.0000 -0.0000
vn 0.9397 0.0000 -0.3420
vn 0.7660 0.0000 -0.6428
vn 0.5000 0.0000 -0.8660
vn 0.1736 0.0000 -0.9848
vn -0.1736 0.0000 -0.9848
vn -0.5000 0.0000 -0.8660
vn -0.7660 0.0000 -0.6428
vn -0.9397 0.0000 -0.3420
vn -1.0000 0.0000 -0.0000
vn -0.9397 0.0000 0.3420
vn -0.7660 0.0000 0.6428
vn -0.5000 0.0000 0.8660
vn -0.1736 0.0000 0.9848
vn 0.1736 0.0000 0.9848
vn 0.5000 0.0000 0.8660
vn 0.7660 0.0000 0.6428
vn 0.9397 0.0000 0.3420
vn 0.0000 -1.0000 -0.0000
vn 0.0000 1.0000 -0.0000
vn 0.9971 0.0191 -0.0738
vn 1.0000 0.0003 -0.0014
vn 0.0002 0.0033 -1.0000
vn 0.0001 0.1655 -0.9862
vn -0.9971 0.0192 -0.0736
vn -1.0000 0.0003 -0.0011
vn -0.0001 -0.1770 0.9842
vn -0.0002 -0.0024 1.0000
vn 0.0000 0.5548 -0.8320
vn 0.9939 0.0613 -0.0919
vn -0.9939 0.0613 -0.0919
vn 0.0000 -0.5548 0.8320
vn 0.0000 0.8840 -0.4675
vn 0.9939 0.0976 -0.0516
vn -0.9939 0.0976 -0.0516
vn 0.0000 -0.8840 0.4675
vn 0.0000 1.0000 0.0097
vn 0.9939 0.1104 0.0011
vn -0.9939 0.1104 0.0011
vn 0.0000 -1.0000 -0.0097
vn 0.0000 0.8747 0.4846
vn 0.9939 0.0966 0.0535
vn -0.9939 0.0966 0.0535
vn 0.0000 -0.8747 -0.4846
vn 0.0000 0.5385 0.8426
vn 0.9939 0.0595 0.0930
vn -0.9939 0.0595 0.0930
vn 0.0000 -0.5385 -0.8426
vn -0.0001 0.1550 0.9879
vn 0.9974 0.0180 0.0698
vn -0.9974 0.0180 0.0699
vn 0.0001 -0.1673 -0.9859
vn -0.0001 0.0021 1.0000
vn 1.0000 0.0002 0.0007
vn -1.0000 0.0002 0.0009
vn 0.0001 -0.0015 -1.0000
# 56 vertex normals

vt 0.5003 0.4552 1.0000
vt 0.5003 0.4140 1.0000
vt 0.9840 0.4140 1.0000
vt 0.9840 0.4552 1.0000
vt 0.5003 0.3727 1.0000
vt 0.9840 0.3727 1.0000
vt 0.5003 0.3314 1.0000
vt 0.9840 0.3314 1.0000
vt 0.5003 0.2901 1.0000
vt 0.9840 0.2901 1.0000
vt 0.5003 0.2488 1.0000
vt 0.9840 0.2488 1.0000
vt 0.5003 0.9919 1.0000
vt 0.5003 0.9506 1.0000
vt 0.9840 0.9506 1.0000
vt 0.9840 0.9919 1.0000
vt 0.5003 0.9093 1.0000
vt 0.9840 0.9093 1.0000
vt 0.5003 0.8680 1.0000
vt 0.9840 0.8680 1.0000
vt 0.5003 0.8268 1.0000
vt 0.9840 0.8268 1.0000
vt 0.5003 0.7855 1.0000
vt 0.9840 0.7855 1.0000
vt 0.5003 0.7442 1.0000
vt 0.9840 0.7442 1.0000
vt 0.5003 0.7029 1.0000
vt 0.9840 0.7029 1.0000
vt 0.5003 0.6616 1.0000
vt 0.9840 0.6616 1.0000
vt 0.5003 0.6204 1.0000
vt 0.9840 0.6204 1.0000
vt 0.5003 0.5791 1.0000
vt 0.9840 0.5791 1.0000
vt 0.5003 0.5378 1.0000
vt 0.9840 0.5378 1.0000
vt 0.5003 0.4965 1.0000
vt 0.9840 0.4965 1.0000
vt 0.3674 0.2282 1.0000
vt 0.2885 0.2424 1.0000
vt 0.2045 0.2424 1.0000
vt 0.1255 0.2283 1.0000
vt 0.7090 0.2406 1.0000
vt 0.6302 0.2263 1.0000
vt 0.8720 0.2267 1.0000
vt 0.7930 0.2407 1.0000
vt 0.5661 0.1996 1.0000
vt 0.9366 0.2003 1.0000
vt 0.5244 0.1638 1.0000
vt 0.9788 0.1647 1.0000
vt 0.4881 0.1253 1.0000
vt 0.4736 0.1659 1.0000
vt 0.0191 0.1661 1.0000
vt 0.0045 0.1254 1.0000
vt 0.5101 0.1231 1.0000
vt 0.9937 0.1240 1.0000
vt 0.4735 0.0846 1.0000
vt 0.0190 0.0848 1.0000
vt 0.5250 0.0825 1.0000
vt 0.9795 0.0834 1.0000
vt 0.4314 0.0489 1.0000
vt 0.0609 0.0490 1.0000
vt 0.5673 0.0468 1.0000
vt 0.9378 0.0475 1.0000
vt 0.3671 0.0224 1.0000
vt 0.1252 0.0224 1.0000
vt 0.6318 0.0204 1.0000
vt 0.8736 0.0209 1.0000
vt 0.2881 0.0083 1.0000
vt 0.2041 0.0083 1.0000
vt 0.7108 0.0064 1.0000
vt 0.7948 0.0066 1.0000
vt 0.0612 0.2018 1.0000
vt 0.4317 0.2017 1.0000
vt 0.1900 0.5116 1.0000
vt 0.1828 0.3840 1.0000
vt 0.2628 0.3811 1.0000
vt 0.2628 0.5071 1.0000
vt 0.3355 0.5116 1.0000
vt 0.3428 0.3840 1.0000
vt 0.4080 0.5167 1.0000
vt 0.4183 0.3875 1.0000
vt 0.1176 0.5167 1.0000
vt 0.1072 0.3875 1.0000
vt 0.2628 0.5524 1.0000
vt 0.1921 0.5538 1.0000
vt 0.3335 0.5538 1.0000
vt 0.4057 0.5554 1.0000
vt 0.1199 0.5554 1.0000
vt 0.2628 0.5956 1.0000
vt 0.1916 0.5960 1.0000
vt 0.3340 0.5960 1.0000
vt 0.4060 0.5963 1.0000
vt 0.1196 0.5963 1.0000
vt 0.2628 0.6381 1.0000
vt 0.1912 0.6381 1.0000
vt 0.3343 0.6381 1.0000
vt 0.4064 0.6381 1.0000
vt 0.1192 0.6381 1.0000
vt 0.2628 0.6806 1.0000
vt 0.1916 0.6803 1.0000
vt 0.3340 0.6803 1.0000
vt 0.4060 0.6799 1.0000
vt 0.1195 0.6799 1.0000
vt 0.2628 0.7239 1.0000
vt 0.1920 0.7225 1.0000
vt 0.3335 0.7225 1.0000
vt 0.4057 0.7207 1.0000
vt 0.1199 0.7207 1.0000
vt 0.2628 0.7693 1.0000
vt 0.1898 0.7646 1.0000
vt 0.3357 0.7646 1.0000
vt 0.4082 0.7593 1.0000
vt 0.1173 0.7593 1.0000
vt 0.2628 0.8950 1.0000
vt 0.1829 0.8923 1.0000
vt 0.3427 0.8923 1.0000
vt 0.4181 0.8888 1.0000
vt 0.1075 0.8888 1.0000
vt 0.1898 0.5119 1.0000
vt 0.1825 0.3842 1.0000
vt 0.2626 0.3813 1.0000
vt 0.2626 0.5074 1.0000
vt 0.3353 0.5119 1.0000
vt 0.3426 0.3842 1.0000
vt 0.4077 0.5170 1.0000
vt 0.4181 0.3878 1.0000
vt 0.1174 0.5170 1.0000
vt 0.1070 0.3878 1.0000
vt 0.2626 0.5527 1.0000
vt 0.1918 0.5540 1.0000
vt 0.3333 0.5540 1.0000
vt 0.4055 0.5557 1.0000
vt 0.1196 0.5557 1.0000
vt 0.2626 0.5959 1.0000
vt 0.1914 0.5963 1.0000
vt 0.3337 0.5963 1.0000
vt 0.4058 0.5966 1.0000
vt 0.1193 0.5966 1.0000
vt 0.2626 0.6384 1.0000
vt 0.1910 0.6384 1.0000
vt 0.3341 0.6384 1.0000
vt 0.4062 0.6383 1.0000
vt 0.1189 0.6383 1.0000
vt 0.2626 0.6809 1.0000
vt 0.1913 0.6805 1.0000
vt 0.3338 0.6805 1.0000
vt 0.4058 0.6801 1.0000
vt 0.1193 0.6801 1.0000
vt 0.2626 0.7242 1.0000
vt 0.1918 0.7227 1.0000
vt 0.3333 0.7227 1.0000
vt 0.4055 0.7209 1.0000
vt 0.1196 0.7209 1.0000
vt 0.2626 0.7696 1.0000
vt 0.1896 0.7649 1.0000
vt 0.3355 0.7649 1.0000
vt 0.4080 0.7595 1.0000
vt 0.1171 0.7595 1.0000
vt 0.2625 0.8953 1.0000
vt 0.1827 0.8925 1.0000
vt 0.3424 0.8925 1.0000
vt 0.4179 0.8891 1.0000
vt 0.1072 0.8891 1.0000
# 164 texture coords

g Barrier_cylinder
s 1
f 1/1/1 2/2/2 3/3/2 4/4/1 
f 2/2/2 5/5/3 6/6/3 3/3/2 
f 5/5/3 7/7/4 8/8/4 6/6/3 
f 7/7/4 9/9/5 10/10/5 8/8/4 
f 9/9/5 11/11/6 12/12/6 10/10/5 
f 11/13/6 13/14/7 14/15/7 12/16/6 
f 13/14/7 15/17/8 16/18/8 14/15/7 
f 15/17/8 17/19/9 18/20/9 16/18/8 
f 17/19/9 19/21/10 20/22/10 18/20/9 
f 19/21/10 21/23/11 22/24/11 20/22/10 
f 21/23/11 23/25/12 24/26/12 22/24/11 
f 23/25/12 25/27/13 26/28/13 24/26/12 
f 25/27/13 27/29/14 28/30/14 26/28/13 
f 27/29/14 29/31/15 30/32/15 28/30/14 
f 29/31/15 31/33/16 32/34/16 30/32/15 
f 31/33/16 33/35/17 34/36/17 32/34/16 
f 33/35/17 35/37/18 36/38/18 34/36/17 
f 35/37/18 1/1/1 4/4/1 36/38/18 
s 2
f 13/39/19 11/40/19 9/41/19 7/42/19 
f 12/43/20 14/44/20 8/45/20 10/46/20 
f 14/44/20 16/47/20 6/48/20 8/45/20 
f 16/47/20 18/49/20 3/50/20 6/48/20 
f 19/51/19 17/52/19 2/53/19 1/54/19 
f 18/49/20 20/55/20 4/56/20 3/50/20 
f 21/57/19 19/51/19 1/54/19 35/58/19 
f 20/55/20 22/59/20 36/60/20 4/56/20 
f 23/61/19 21/57/19 35/58/19 33/62/19 
f 22/59/20 24/63/20 34/64/20 36/60/20 
f 25/65/19 23/61/19 33/62/19 31/66/19 
f 24/63/20 26/67/20 32/68/20 34/64/20 
f 27/69/19 25/65/19 31/66/19 29/70/19 
f 26/67/20 28/71/20 30/72/20 32/68/20 
f 5/73/19 15/74/19 13/39/19 7/42/19 
s 8
f 37/75/21 38/76/22 39/77/23 40/78/24 
f 41/79/25 40/78/24 39/77/23 42/80/26 
f 43/81/27 41/79/25 42/80/26 44/82/28 
f 43/83/27 44/84/28 38/76/22 37/75/21 
f 37/75/21 40/78/24 45/85/29 46/86/30 
f 40/78/24 41/79/25 47/87/31 45/85/29 
f 41/79/25 43/81/27 48/88/32 47/87/31 
f 43/83/27 37/75/21 46/86/30 48/89/32 
f 46/86/30 45/85/29 49/90/33 50/91/34 
f 45/85/29 47/87/31 51/92/35 49/90/33 
f 47/87/31 48/88/32 52/93/36 51/92/35 
f 48/89/32 46/86/30 50/91/34 52/94/36 
f 50/91/34 49/90/33 53/95/37 54/96/38 
f 49/90/33 51/92/35 55/97/39 53/95/37 
f 51/92/35 52/93/36 56/98/40 55/97/39 
f 52/94/36 50/91/34 54/96/38 56/99/40 
f 54/96/38 53/95/37 57/100/41 58/101/42 
f 53/95/37 55/97/39 59/102/43 57/100/41 
f 55/97/39 56/98/40 60/103/44 59/102/43 
f 56/99/40 54/96/38 58/101/42 60/104/44 
f 58/101/42 57/100/41 61/105/45 62/106/46 
f 57/100/41 59/102/43 63/107/47 61/105/45 
f 59/102/43 60/103/44 64/108/48 63/107/47 
f 60/104/44 58/101/42 62/106/46 64/109/48 
f 62/106/46 61/105/45 65/110/49 66/111/50 
f 61/105/45 63/107/47 67/112/51 65/110/49 
f 63/107/47 64/108/48 68/113/52 67/112/51 
f 64/109/48 62/106/46 66/111/50 68/114/52 
f 69/115/53 70/116/54 66/111/50 65/110/49 
f 69/115/53 65/110/49 67/112/51 71/117/55 
f 71/117/55 67/112/51 68/113/52 72/118/56 
f 70/116/54 72/119/56 68/114/52 66/111/50 
f 73/120/21 74/121/22 75/122/23 76/123/24 
f 77/124/25 76/123/24 75/122/23 78/125/26 
f 79/126/27 77/124/25 78/125/26 80/127/28 
f 79/128/27 80/129/28 74/121/22 73/120/21 
f 73/120/21 76/123/24 81/130/29 82/131/30 
f 76/123/24 77/124/25 83/132/31 81/130/29 
f 77/124/25 79/126/27 84/133/32 83/132/31 
f 79/128/27 73/120/21 82/131/30 84/134/32 
f 82/131/30 81/130/29 85/135/33 86/136/34 
f 81/130/29 83/132/31 87/137/35 85/135/33 
f 83/132/31 84/133/32 88/138/36 87/137/35 
f 84/134/32 82/131/30 86/136/34 88/139/36 
f 86/136/34 85/135/33 89/140/37 90/141/38 
f 85/135/33 87/137/35 91/142/39 89/140/37 
f 87/137/35 88/138/36 92/143/40 91/142/39 
f 88/139/36 86/136/34 90/141/38 92/144/40 
f 90/141/38 89/140/37 93/145/41 94/146/42 
f 89/140/37 91/142/39 95/147/43 93/145/41 
f 91/142/39 92/143/40 96/148/44 95/147/43 
f 92/144/40 90/141/38 94/146/42 96/149/44 
f 94/146/42 93/145/41 97/150/45 98/151/46 
f 93/145/41 95/147/43 99/152/47 97/150/45 
f 95/147/43 96/148/44 100/153/48 99/152/47 
f 96/149/44 94/146/42 98/151/46 100/154/48 
f 98/151/46 97/150/45 101/155/49 102/156/50 
f 97/150/45 99/152/47 103/157/51 101/155/49 
f 99/152/47 100/153/48 104/158/52 103/157/51 
f 100/154/48 98/151/46 102/156/50 104/159/52 
f 105/160/53 106/161/54 102/156/50 101/155/49 
f 105/160/53 101/155/49 103/157/51 107/162/55 
f 107/162/55 103/157/51 104/158/52 108/163/56 
f 106/161/54 108/164/56 104/159/52 102/156/50 
s 2
f 2/53/19 17/52/19 15/74/19 5/73/19 
# 98 polygons

#
# object Barrier_cylinder_collider
#

v  0.0000 -0.5000 -0.0000
v  10.1976 -0.5000 -31.3849
v  26.6976 -0.5000 -19.3969
v  33.0000 -0.5000 -0.0000
v  -26.6976 -0.5000 -19.3969
v  -10.1976 -0.5000 -31.3849
v  -26.6976 -0.5000 19.3969
v  -33.0000 -0.5000 0.0000
v  10.1976 -0.5000 31.3849
v  -10.1976 -0.5000 31.3849
v  26.6976 -0.5000 19.3969
v  26.6976 62.5000 -19.3969
v  33.0000 62.5000 -0.0000
v  10.1976 62.5000 -31.3849
v  -10.1976 62.5000 -31.3849
v  -26.6976 62.5000 -19.3969
v  -33.0000 62.5000 0.0000
v  -26.6976 62.5000 19.3969
v  -10.1976 62.5000 31.3849
v  10.1976 62.5000 31.3849
v  26.6976 62.5000 19.3969
v  0.0000 62.5000 -0.0000
# 22 vertices

vn 0.0000 -1.0000 -0.0000
vn 1.0000 0.0000 -0.0000
vn 0.8090 0.0000 -0.5878
vn 0.3090 0.0000 -0.9511
vn -0.3090 0.0000 -0.9511
vn -0.8090 0.0000 -0.5878
vn -1.0000 0.0000 0.0000
vn -0.8090 0.0000 0.5878
vn -0.3090 0.0000 0.9511
vn 0.3090 0.0000 0.9511
vn 0.8090 0.0000 0.5878
vn 0.0000 1.0000 -0.0000
# 12 vertex normals

vt 0.5000 0.0000 0.0000
vt 0.9500 0.0000 1.0000
vt 0.8500 0.0000 1.0000
vt 0.7500 0.0000 1.0000
vt 0.1500 0.0000 1.0000
vt 0.0500 0.0000 1.0000
vt -0.0500 0.0000 1.0000
vt 0.3500 0.0000 1.0000
vt 0.2500 0.0000 1.0000
vt 0.5500 0.0000 1.0000
vt 0.4500 0.0000 1.0000
vt 0.6500 0.0000 1.0000
vt 0.8500 1.0000 1.0000
vt 0.7500 1.0000 1.0000
vt 0.9500 1.0000 1.0000
vt 0.0500 1.0000 1.0000
vt -0.0500 1.0000 1.0000
vt 0.1500 1.0000 1.0000
vt 0.2500 1.0000 1.0000
vt 0.3500 1.0000 1.0000
vt 0.4500 1.0000 1.0000
vt 0.5500 1.0000 1.0000
vt 0.6500 1.0000 1.0000
vt 0.5000 1.0000 0.0000
vt 0.8781 1.0000 0.6180
# 25 texture coords

g Barrier_cylinder_collider
s 1
f 109/165/57 110/166/57 111/167/57 112/168/57 
f 109/165/57 113/169/57 114/170/57 110/171/57 
f 109/165/57 115/172/57 116/173/57 113/169/57 
f 109/165/57 117/174/57 118/175/57 115/172/57 
f 109/165/57 112/168/57 119/176/57 117/174/57 
s 8
f 112/168/58 111/167/59 120/177/59 121/178/58 
f 111/167/59 110/166/60 122/179/60 120/177/59 
f 110/171/60 114/170/61 123/180/61 122/181/60 
f 114/170/61 113/169/62 124/182/62 123/180/61 
f 113/169/62 116/173/63 125/183/63 124/182/62 
f 116/173/63 115/172/64 126/184/64 125/183/63 
f 115/172/64 118/175/65 127/185/65 126/184/64 
f 118/175/65 117/174/66 128/186/66 127/185/65 
f 117/174/66 119/176/67 129/187/67 128/186/66 
f 119/176/67 112/168/58 121/178/58 129/187/67 
s 1
f 130/188/68 129/187/68 121/178/68 120/177/68 
f 130/188/68 120/177/68 122/179/68 123/189/68 
f 130/188/68 123/180/68 124/182/68 125/183/68 
f 130/188/68 125/183/68 126/184/68 127/185/68 
f 130/188/68 127/185/68 128/186/68 129/187/68 
# 20 polygons

